PathFileType	4	(X/Y/Z)	Patient4_TMGait_0pt4_02_left_20.trc.trc
DataRate	CameraRate	NumFrames	NumMarkers	Units	OrigDataRate	OrigDataStartFrame	OrigNumFrames
71.428571428572	71.428571428572	5	33	mm	71.428571428572	36	       141
Frame#	Time	Sacral			L.Shoulder			Chest			R.Shoulder			Neck			R.ASIS			L.ASIS			R.Thigh.Superior			R.Thigh.Lateral			R.Thigh.Inferior			R.Patella			L.Thigh.Superior			L.Thigh.Lateral			L.Thigh.Inferior			L.Patella			L.Shank.Superior			L.Shank.Lateral			L.Shank.Inferior			R.Shank.Superior			R.Shank.Lateral			R.Shank.Inferior			R.Heel			R.Midfoot.Superior			R.Midfoot.Lateral			R.Toe			L.Heel			L.Midfoot.Lateral			L.Midfoot.Superior			L.Toe			L.Elbow			L.Wrist			R.Elbow			R.Wrist			
		X1	Y1	Z1	X2	Y2	Z2	X3	Y3	Z3	X4	Y4	Z4	X5	Y5	Z5	X6	Y6	Z6	X7	Y7	Z7	X8	Y8	Z8	X9	Y9	Z9	X10	Y10	Z10	X11	Y11	Z11	X12	Y12	Z12	X13	Y13	Z13	X14	Y14	Z14	X15	Y15	Z15	X16	Y16	Z16	X17	Y17	Z17	X18	Y18	Z18	X19	Y19	Z19	X20	Y20	Z20	X21	Y21	Z21	X22	Y22	Z22	X23	Y23	Z23	X24	Y24	Z24	X25	Y25	Z25	X26	Y26	Z26	X27	Y27	Z27	X28	Y28	Z28	X29	Y29	Z29	X30	Y30	Z30	X31	Y31	Z31	X32	Y32	Z32	X33	Y33	Z33	

36	27.270000000000	893.473244732758	995.645134008357	485.073733925749	1028.780448965999	1427.214574726826	283.295757669196	1153.609257639128	1367.891114664968	431.676534841272	1087.805352517611	1440.449879993073	613.373831985287	1027.851855203749	1491.023057228255	439.108104145286	1132.127802429920	940.127642419918	580.837915250036	1095.008993617505	958.837860012555	308.024312852600	1147.205711815471	727.847261546243	558.884578628592	1058.454421563745	626.115307926857	629.226409122647	1125.072525019381	561.897026762238	551.041654836943	1113.504276728231	461.945693171813	568.642549877293	1173.611770576519	763.745799245712	338.839388277142	1104.742813713176	635.496840637999	276.384750330292	1204.059224632504	570.938718070134	334.401910001061	1215.158504834182	499.754048244336	341.018642002449	1190.323409312014	424.690502615633	332.389533337219	1103.897865056626	308.440932688505	279.573060896582	1162.165921556795	196.842951930031	344.731452954744	1051.292620189537	387.051289493581	578.763393406183	948.919055228865	318.849147106431	647.507958391389	952.250873341395	211.877090755760	591.691210437015	770.980181605396	87.646815711717	575.361535745560	948.947264629952	101.572917379440	604.399520795339	852.722111243565	59.549515172539	646.331188783699	1055.427275466679	36.776584490672	628.900756183420	1041.611198039654	38.737494840950	384.340900711163	1113.664306974491	36.311637726570	302.060662800427	1196.312068079064	98.081410933879	328.352382772568	1324.667323950581	48.372482570303	296.081154039082	970.631991074154	1075.298053538044	178.998328680479	1040.977544310861	822.572914606830	169.331287739402	1197.202587867717	1121.055835397450	742.758885038952	1414.075044342557	1185.611276556047	639.732112232223	
37	27.284000000000	893.490297109263	995.846818426210	480.005884621492	1029.425013449983	1427.816788286489	278.903585700733	1153.230753517330	1368.804886269907	428.236996513158	1085.901396181732	1441.257605900731	609.399263241113	1027.128667146029	1491.592549400781	434.664986283887	1131.737999818943	940.982419170545	577.318442272388	1096.535220756992	959.348767478526	304.412042808336	1150.893953561660	729.325978339659	556.220430065817	1064.312889051205	626.382512128368	626.684876461224	1133.083225406439	562.839655372291	549.141241910038	1122.711864413720	461.414001585337	568.316479255991	1173.900761361613	763.151286268713	335.331706964101	1103.831328456088	635.253984084767	273.573357056264	1202.479572595996	570.109858930864	331.863635214181	1212.994727825697	499.017374208686	339.087254207094	1187.790637036595	423.852193143945	330.730796177733	1100.756369067702	307.944307048382	277.940343443197	1157.839439504175	196.366136093672	344.167270137747	1058.157172749702	387.435577750820	578.231264438878	953.069716605048	323.003866676095	646.341593964197	954.205531305268	215.357637326265	591.819760056624	769.273613556194	97.694469940695	575.306699830802	947.251248238268	103.217344910666	604.391992813047	849.372498106737	65.707704608530	646.267249889879	1049.874639906608	36.104088299390	628.950606986973	1036.028736146829	38.710735780773	384.215050129143	1108.072646029566	36.179295361910	301.899821237439	1190.753189214238	97.963998128266	328.243781900612	1319.137525579460	48.208951989487	296.001255986512	977.721878919311	1075.128145393555	172.565430084633	1057.661856344012	825.099949273721	164.388108943745	1190.989890160193	1120.229870489602	739.305156697928	1411.815403592311	1174.895306712522	638.326254096939	
38	27.298000000000	893.329526327718	995.962178375972	474.995106991694	1030.231378703511	1428.317623034944	274.485112356516	1152.824065658272	1369.597788358030	424.900473648618	1083.825356330002	1441.957181042042	605.459802242939	1026.398695277340	1492.065455465551	430.245499575193	1131.168260346570	941.762796521748	573.971401114882	1097.965114812134	959.764036260491	300.960562790975	1155.037611758903	731.021698902957	553.656932299359	1070.954452940317	626.694588925981	624.297740376108	1141.940331123302	564.023902069076	547.343250781949	1132.771850980731	461.179347704107	567.941709062358	1173.841895856228	762.386806608924	331.955592613888	1102.632159479191	635.035484244759	270.684938880055	1200.524000770494	569.243225203081	329.342159463044	1210.423961765244	498.225018453048	337.018014119179	1184.870783615197	422.984285348898	328.931827226390	1097.246681707791	307.353249349452	276.246751357333	1153.299572086994	195.858227238257	343.503698191018	1065.959562174715	388.055706761009	577.660118321340	958.200717983397	327.625301305810	645.126871212912	956.958260468295	219.388247017060	591.869343020903	768.449263915236	109.012972776800	575.014998495887	946.102510475976	105.482744603345	604.304552958418	846.535712453071	72.977441462117	646.032443470236	1044.370028556620	35.383025608155	629.027728683715	1030.364075438036	38.676089861934	384.100251079683	1102.396684841428	36.011322900163	301.745448220487	1185.135216961199	97.778737842830	328.125287526636	1313.540253302006	47.933573442926	295.954839615826	984.979534869452	1075.058683844397	166.068165176485	1074.614757793947	828.155666475386	159.642270446205	1184.030209376341	1119.146016038797	735.820542313025	1408.751293307413	1163.069190685817	637.322789768986	
39	27.312000000000	892.996065486925	995.985390061187	470.109192935773	1031.173832389448	1428.682727439506	270.087932050287	1152.395379358061	1370.244785189811	421.688329483612	1081.629559794147	1442.550249221030	601.584164042464	1025.687915497621	1492.437634726010	425.875549225421	1130.427057408985	942.444895563455	570.811116035124	1099.237593543738	960.100495861407	297.677254462249	1159.540154781236	732.967855590331	551.186235332182	1078.238191888921	627.119367955236	622.063113588425	1151.476487123217	565.511799845461	545.661175602206	1143.528321216896	461.321106105231	567.483928628656	1173.462810923437	761.530455230684	328.667281967623	1101.154148338399	634.860015058337	267.737609096730	1198.237161492117	568.366677807222	326.798863896023	1207.493675123303	497.406772411177	334.804495077099	1181.616219238328	422.115573095333	327.000689068288	1093.423691856783	306.705958829052	274.494508083918	1148.584560543956	195.342477985050	342.740453306857	1074.570974551953	388.972069296564	576.999728995386	964.242685169873	332.693888823603	643.832235985118	960.461776986867	223.975438938037	591.770767534305	768.575273111878	121.465867788333	574.409031063495	945.547407170772	108.492371109907	604.119426216148	844.311410336208	81.340666606552	645.566414822174	1039.054959552994	34.650230040946	629.127740915849	1024.659858263484	38.641561367667	383.987716048391	1096.677171529115	35.828325340412	301.588119944193	1179.490212482635	97.555229066175	327.983482279899	1307.908993449604	47.590575470793	295.922651381768	992.452100990135	1075.058065187166	159.538822255525	1091.750025136054	831.691379562723	155.110978077935	1176.312391230788	1117.802591408201	732.313250842024	1404.732601917438	1150.172875528577	636.758529717268	
40	27.326000000000	892.508145335547	995.924762420515	465.403456534175	1032.209944699605	1428.896058601461	265.763072186237	1151.943950990866	1370.743888548290	418.619284904445	1079.358554722655	1443.052021193370	597.802234386572	1025.014679984602	1492.719602421561	421.579500187381	1129.531221091415	943.022735977538	567.843477304527	1100.308478603309	960.381694649383	294.568389233670	1164.272915645885	735.195339036008	548.801901806625	1085.965728909538	627.734625982193	619.970747818472	1161.473774858608	567.369570062142	544.107825726225	1154.788642950147	461.918181890713	566.924759051921	1172.805401365864	760.648224022073	325.413688858500	1099.393151167933	634.732110672155	264.769880600534	1195.660837319344	567.498390883328	324.205087205504	1204.256053396813	496.589869349598	332.459917337664	1178.079594692355	421.272842916490	324.961351884306	1089.335902313288	306.041435087478	272.708129245017	1143.730401911521	194.840831080807	341.889576730751	1083.826284090204	390.244531706392	576.214696006210	971.083921727022	338.160993092120	642.430202907569	964.656100058963	229.089834644673	591.461426836915	769.701712872204	134.795767986061	573.418952286057	945.646600778938	112.310656377689	603.808746229194	842.815866853782	90.676079532331	644.813084882344	1034.133242159801	33.977959277342	629.232337930445	1018.949883462943	38.612651213972	383.872479618156	1090.947180270561	35.647808702829	301.423596532565	1173.843297260448	97.320062517216	327.811191324269	1302.269961593383	47.219954660048	295.889083894754	1000.183004361489	1075.109283389840	153.023862640406	1108.986459482508	835.659590875482	150.814306226344	1167.843754532406	1116.226767691640	728.798560993710	1399.625453949339	1136.238987373585	636.671445267124	
